<?xml version="1.0" encoding="UTF-8"?>
<svg width="40px" height="40px" viewBox="0 0 40 40" version="1.1" xmlns="http://www.w3.org/2000/svg" xmlns:xlink="http://www.w3.org/1999/xlink">
    <title>Plugin Icon Copy</title>
    <g id="Plugin-Icon-Copy" stroke="none" stroke-width="1" fill="none" fill-rule="evenodd">
        <g id="logo-type-a" transform="translate(2.000000, 4.000000)" fill="#FFFFFF" fill-rule="nonzero">
            <path d="M16.9926929,11.7647685 C17.2873549,11.3351823 17.6083814,11.2809024 17.8689246,11.2809024 C18.1294679,11.2809024 18.5621558,11.3351823 18.8568178,11.7647685 C21.1675883,14.9129994 24.9826859,21.1861985 27.7974835,25.8154938 C29.6336931,28.8319022 31.0434182,31.150427 31.3334276,31.445089 C32.4190245,32.5523978 33.9078431,31.8622684 34.7732189,30.6060777 C35.624637,29.3700481 35.8603666,28.5015706 35.8603666,27.5757116 C35.8603666,26.9445145 23.5186809,4.17799713 22.2764479,2.28285515 C21.0822914,0.460603247 20.6914765,3.44358471e-16 18.6474527,3.44358471e-16 L17.1152102,3.44358471e-16 C15.0758389,3.44358471e-16 14.7811769,0.460603247 13.5854695,2.28285515 C12.3432365,4.17799713 2.58268854e-16,26.9445145 2.58268854e-16,27.5741607 C2.58268854e-16,28.5015706 0.237280461,29.3700481 1.09024944,30.6060777 C1.95562523,31.8622684 3.44444381,32.5523978 4.53004069,31.4435382 C4.81849929,31.1488761 6.22822438,28.8319022 8.06443395,25.8139429 C10.8792316,21.1861985 14.6819224,14.9129994 16.9942437,11.7632176 L16.9926929,11.7647685 Z" id="Path"></path>
        </g>
    </g>
</svg>