<svg xmlns="http://www.w3.org/2000/svg" width="16" height="16">
    <path fill="#FFF" fill-rule="nonzero" d="M7.797 6.706c.118-.172.246-.194.35-.194.105 0 .278.022.396.194.924 1.26 2.45 3.768 3.576 5.62.734 1.207 1.298 2.134 1.414 2.252.435.443 1.03.167 1.376-.336.34-.494.435-.841.435-1.212 0-.252-4.937-9.359-5.433-10.117C9.433 2.184 9.277 2 8.459 2h-.613c-.816 0-.934.184-1.412.913C5.937 3.671 1 12.778 1 13.03c0 .37.095.718.436 1.212.346.503.942.779 1.376.335.115-.117.68-1.044 1.414-2.251 1.126-1.852 2.647-4.36 3.572-5.62Z"/>
</svg>
