<?xml version="1.0" encoding="UTF-8"?>
<svg width="16px" height="16px" viewBox="0 0 16 16" version="1.1" xmlns="http://www.w3.org/2000/svg" xmlns:xlink="http://www.w3.org/1999/xlink">
    <title>Generator Icon</title>
    <g id="Generator-Icon" stroke="none" stroke-width="1" fill="none" fill-rule="evenodd">
        <g id="logo-type-a" transform="translate(1.000000, 2.000000)" fill="#FFFFFF" fill-rule="nonzero">
            <path d="M6.79707714,4.70590738 C6.91494195,4.53407291 7.04335255,4.51236097 7.14756985,4.51236097 C7.25178715,4.51236097 7.42486231,4.53407291 7.54272711,4.70590738 C8.46703531,5.96519976 9.99307435,8.4744794 11.1189934,10.3261975 C11.8534772,11.5327609 12.4173673,12.4601708 12.533371,12.5780356 C12.9676098,13.0209591 13.5631372,12.7449074 13.9092875,12.2424311 C14.2498548,11.7480192 14.3441466,11.4006282 14.3441466,11.0302846 C14.3441466,10.7778058 9.40747238,1.67119885 8.91057918,0.91314206 C8.43291655,0.184241299 8.2765906,1.37743389e-16 7.45898107,1.37743389e-16 L6.84608409,1.37743389e-16 C6.03033557,1.37743389e-16 5.91247077,0.184241299 5.4341878,0.91314206 C4.9372946,1.67119885 1.03307541e-16,10.7778058 1.03307541e-16,11.0296643 C1.03307541e-16,11.4006282 0.0949121842,11.7480192 0.436099775,12.2424311 C0.782250094,12.7449074 1.37777752,13.0209591 1.81201628,12.5774153 C1.92739972,12.4595505 2.49128975,11.5327609 3.22577358,10.3255772 C4.35169263,8.4744794 5.87276894,5.96519976 6.79769748,4.70528704 L6.79707714,4.70590738 Z" id="Path"></path>
        </g>
    </g>
</svg>